<svg width="52" height="52" viewBox="0 0 52 52" fill="none" xmlns="http://www.w3.org/2000/svg">
<path d="M40.0464 36.3285C37.085 37.0396 33.9934 37.0052 31.0485 36.2282C28.1036 35.4513 25.3974 33.9562 23.1721 31.8767C20.9468 29.7972 19.2721 27.1983 18.2977 24.3127C17.3233 21.4271 17.0798 18.345 17.5889 15.3422C17.5127 15.4182 17.4308 15.4885 17.3441 15.5523C16.7374 16.0138 15.9791 16.185 14.4624 16.5273L13.0866 16.8393C7.75661 18.0462 5.09161 18.6485 4.45677 20.6873C3.82411 22.724 5.63977 24.8495 9.27327 29.0983L10.2136 30.1968C11.2449 31.4037 11.7628 32.0082 11.9946 32.7535C12.2264 33.501 12.1484 34.307 11.9924 35.9168L11.8494 37.3837C11.3013 43.0538 11.0261 45.8878 12.6858 47.1467C14.3454 48.4055 16.8414 47.2593 21.8291 44.9605L23.1226 44.3668C24.5396 43.7125 25.2481 43.3875 25.9999 43.3875C26.7518 43.3875 27.4603 43.7125 28.8794 44.3668L30.1686 44.9605C35.1584 47.2572 37.6544 48.4055 39.3119 47.1488C40.9738 45.8878 40.6986 43.0538 40.1504 37.3837L40.0464 36.3285Z" fill="#FFC400"/>
<path opacity="0.5" d="M19.8315 11.7174L19.1208 12.9914C18.3408 14.391 17.9508 15.0909 17.3441 15.5524C17.4308 15.4874 17.5124 15.4173 17.589 15.3422C17.0797 18.3452 17.3232 21.4277 18.2977 24.3135C19.2721 27.1993 20.9471 29.7983 23.1727 31.8779C25.3982 33.9574 28.1048 35.4525 31.05 36.2292C33.9952 37.006 37.087 37.0401 40.0486 36.3285L40.0053 35.9169C39.8515 34.307 39.7735 33.501 40.0053 32.7535C40.2371 32.0082 40.7528 31.4037 41.7863 30.1969L42.7266 29.0984C46.3601 24.8517 48.1758 22.7262 47.541 20.6874C46.9083 18.6485 44.2433 18.044 38.9133 16.8394L37.5353 16.5274C36.0208 16.185 35.2625 16.0139 34.6536 15.5524C34.047 15.0909 33.657 14.391 32.877 12.9914L32.1685 11.7174C29.4233 6.79471 28.0518 4.33337 26 4.33337C23.9481 4.33337 22.5766 6.79471 19.8315 11.7174Z" fill="#FFC400"/>
</svg>
